<?xml version="1.0" standalone="no"?>
<!DOCTYPE svg PUBLIC "-//W3C//DTD SVG 20010904//EN"
 "http://www.w3.org/TR/2001/REC-SVG-20010904/DTD/svg10.dtd">
<svg version="1.0" xmlns="http://www.w3.org/2000/svg"
 width="512.000000pt" height="512.000000pt" viewBox="0 0 512.000000 512.000000"
 preserveAspectRatio="xMidYMid meet">

<g transform="translate(0.000000,512.000000) scale(0.100000,-0.100000)"
fill="#000000" stroke="none">
<path d="M2 3853 c0 -698 4 -1212 8 -1143 30 508 203 971 524 1400 82 110 327
360 435 445 429 337 924 527 1446 554 77 5 -433 9 -1137 9 l-1278 2 2 -1267z"/>
<path d="M2705 5109 c513 -27 1010 -215 1425 -538 106 -82 288 -258 379 -365
354 -417 569 -950 600 -1491 5 -72 9 431 9 1138 l2 1267 -1277 -2 c-705 0
-1215 -4 -1138 -9z"/>
<path d="M1515 4455 c-79 -32 -154 -109 -183 -188 l-22 -58 0 -1429 0 -1429
22 -58 c29 -79 112 -162 191 -191 57 -22 67 -22 650 -22 l591 0 -54 55 -54 55
-511 0 c-580 0 -583 0 -654 71 -22 23 -46 58 -51 78 -8 25 -10 486 -8 1463 l3
1426 30 43 c18 26 50 53 80 68 48 25 56 26 235 26 l185 0 3 -56 c2 -45 8 -61
28 -80 l26 -24 318 0 318 0 26 24 c20 19 26 35 28 80 l3 56 190 0 c175 0 193
-2 230 -22 46 -24 75 -54 101 -103 18 -33 19 -83 22 -1140 l2 -1104 25 -50
c14 -28 25 -67 25 -88 l0 -39 30 34 30 35 0 1160 0 1161 -22 58 c-29 79 -112
162 -191 191 -57 22 -63 22 -820 22 l-762 0 -60 -25z"/>
<path d="M2020 3636 c-215 -77 -316 -117 -318 -128 -3 -15 7 -20 175 -79 23
-8 23 -10 25 -261 l3 -253 217 -55 217 -54 198 48 c109 27 208 52 220 57 23 8
23 10 25 260 l3 252 93 32 c102 35 107 38 99 57 -3 10 -555 213 -632 233 -5 2
-152 -48 -325 -109z m474 -115 c89 -25 144 -45 153 -57 20 -28 18 -352 -3
-382 -18 -26 -50 -28 -76 -5 -16 14 -18 34 -18 168 l0 152 -107 28 c-60 15
-118 33 -130 41 -43 27 -23 93 27 93 8 0 78 -17 154 -38z"/>
<path d="M2 1268 l-2 -1268 1278 2 c704 0 1214 4 1137 9 -524 28 -1012 215
-1450 557 -104 81 -350 333 -431 442 -321 429 -494 892 -524 1400 -4 69 -8
-445 -8 -1142z"/>
<path d="M5110 2446 c0 -173 -49 -449 -117 -660 -126 -393 -324 -717 -623
-1017 -147 -148 -219 -209 -366 -312 -376 -263 -839 -422 -1299 -446 -77 -5
433 -9 1138 -9 l1277 -2 0 1265 c0 696 -2 1265 -5 1265 -3 0 -5 -38 -5 -84z"/>
<path d="M2850 820 l0 -180 393 2 392 3 3 178 2 177 -395 0 -395 0 0 -180z"/>
</g>
</svg>
