<?xml version="1.0" standalone="no"?>
<!DOCTYPE svg PUBLIC "-//W3C//DTD SVG 20010904//EN"
 "http://www.w3.org/TR/2001/REC-SVG-20010904/DTD/svg10.dtd">
<svg version="1.0" xmlns="http://www.w3.org/2000/svg"
 width="512.000000pt" height="512.000000pt" viewBox="0 0 512.000000 512.000000"
 preserveAspectRatio="xMidYMid meet">

<g transform="translate(0.000000,512.000000) scale(0.100000,-0.100000)"
fill="#000000" stroke="none">
<path d="M1 3358 c1 -970 4 -1749 6 -1733 15 126 55 182 232 324 80 65 158
126 174 135 15 10 27 22 27 26 0 4 -31 10 -69 12 -80 6 -125 28 -158 77 -47
70 -38 158 21 217 43 43 89 54 227 54 l115 0 114 298 c62 163 124 319 138 346
51 103 175 198 293 225 24 6 139 11 256 11 l212 0 3 753 3 752 27 57 c44 95
141 174 242 199 17 4 -395 7 -916 8 l-948 1 1 -1762z"/>
<path d="M4871 5101 c31 -10 77 -33 102 -51 58 -41 105 -107 128 -179 l18 -56
0 153 1 152 -152 -1 -153 0 56 -18z"/>
<path d="M3464 4776 c-38 -28 5 -239 70 -336 83 -126 324 -181 506 -116 126
46 172 56 246 57 113 1 183 -40 232 -136 l19 -39 17 71 c36 158 14 279 -63
354 -84 81 -97 83 -481 85 -282 1 -345 4 -395 18 -33 9 -69 23 -80 30 -35 22
-53 25 -71 12z"/>
<path d="M5110 3107 c0 -40 -58 -143 -106 -187 -25 -23 -67 -52 -92 -63 -47
-22 -52 -22 -805 -25 -714 -2 -759 -4 -753 -20 4 -9 35 -90 69 -179 l62 -163
115 0 c137 0 183 -11 226 -54 59 -59 68 -147 21 -217 -33 -48 -77 -70 -160
-78 -59 -5 -69 -8 -57 -19 8 -6 85 -68 172 -137 169 -134 198 -165 231 -247
20 -50 22 -73 25 -395 l4 -343 -2031 0 -2031 0 0 -490 0 -490 218 1 c119 1
203 4 186 9 -47 11 -92 47 -114 90 -18 35 -20 60 -20 235 l0 195 350 0 350 0
0 -176 c0 -180 -9 -244 -38 -280 -24 -29 -67 -55 -105 -64 -17 -5 524 -8 1203
-8 679 0 1222 3 1205 7 -66 16 -117 64 -135 129 -5 20 -10 117 -10 215 l0 177
351 0 350 0 -3 -208 -3 -209 -28 -36 c-30 -40 -55 -56 -102 -68 -16 -4 306 -7
718 -8 l747 -1 0 1565 c0 861 -2 1565 -5 1565 -3 0 -5 -11 -5 -23z m-2460
-2357 l0 -220 -620 0 -620 0 0 220 0 220 620 0 620 0 0 -220z"/>
<path d="M1333 2113 c390 -2 1024 -2 1410 0 386 1 68 2 -708 2 -775 0 -1091
-1 -702 -2z"/>
<path d="M1349 1651 c-29 -29 -29 -30 -29 -151 0 -121 0 -122 29 -151 29 -28
32 -29 135 -29 l106 0 0 180 0 180 -106 0 c-103 0 -106 -1 -135 -29z"/>
<path d="M1765 1500 l0 -180 88 0 87 0 0 180 0 180 -87 0 -88 0 0 -180z"/>
<path d="M2120 1500 l0 -180 90 0 90 0 0 180 0 180 -90 0 -90 0 0 -180z"/>
<path d="M2470 1500 l0 -180 106 0 c103 0 106 1 135 29 29 29 29 30 29 151 0
121 0 122 -29 151 -29 28 -32 29 -135 29 l-106 0 0 -180z"/>
</g>
</svg>
