<?xml version="1.0" standalone="no"?>
<!DOCTYPE svg PUBLIC "-//W3C//DTD SVG 20010904//EN"
 "http://www.w3.org/TR/2001/REC-SVG-20010904/DTD/svg10.dtd">
<svg version="1.0" xmlns="http://www.w3.org/2000/svg"
 width="512.000000pt" height="512.000000pt" viewBox="0 0 512.000000 512.000000"
 preserveAspectRatio="xMidYMid meet">

<g transform="translate(0.000000,512.000000) scale(0.100000,-0.100000)"
fill="#000000" stroke="none">
<path d="M0 2560 l0 -2560 2560 0 2560 0 0 2560 0 2560 -2560 0 -2560 0 0
-2560z m2910 2385 c784 -115 1469 -617 1815 -1330 113 -231 182 -453 221 -710
26 -168 26 -522 0 -690 -79 -512 -298 -957 -654 -1326 -315 -327 -706 -555
-1137 -664 -219 -55 -342 -69 -595 -69 -255 0 -368 13 -593 69 -849 213 -1528
892 -1742 1740 -55 219 -69 342 -69 595 0 253 14 376 69 595 146 579 515 1093
1025 1427 122 80 342 191 482 242 175 65 434 121 638 140 98 9 430 -3 540 -19z"/>
</g>
</svg>
