<?xml version="1.0" standalone="no"?>
<!DOCTYPE svg PUBLIC "-//W3C//DTD SVG 20010904//EN"
 "http://www.w3.org/TR/2001/REC-SVG-20010904/DTD/svg10.dtd">
<svg version="1.0" xmlns="http://www.w3.org/2000/svg"
 width="512.000000pt" height="512.000000pt" viewBox="0 0 512.000000 512.000000"
 preserveAspectRatio="xMidYMid meet">

<g transform="translate(0.000000,512.000000) scale(0.100000,-0.100000)"
fill="#000000" stroke="none">
<path d="M0 2560 l0 -2560 2560 0 2560 0 0 2560 0 2560 -2560 0 -2560 0 0
-2560z m3729 1770 c730 -364 1145 -577 1155 -592 14 -20 16 -138 16 -1178 0
-1040 -2 -1158 -16 -1178 -22 -32 -2283 -1162 -2324 -1162 -41 0 -2302 1130
-2324 1162 -14 20 -16 138 -16 1178 0 1040 2 1158 16 1178 22 32 2283 1162
2324 1162 19 0 431 -201 1169 -570z"/>
<path d="M2338 4574 c-115 -57 -208 -106 -208 -109 0 -3 450 -230 1000 -505
l1000 -500 215 107 c118 59 215 110 215 113 0 8 -1988 1000 -2003 999 -6 0
-105 -47 -219 -105z"/>
<path d="M1583 4197 c-167 -84 -303 -154 -303 -157 0 -3 450 -230 1000 -505
l1000 -500 312 156 313 156 -1002 502 c-552 275 -1006 501 -1010 500 -5 0
-144 -68 -310 -152z"/>
<path d="M793 3802 c-128 -64 -233 -119 -233 -122 0 -3 450 -230 1000 -505
l1000 -500 240 120 c132 66 240 122 240 125 0 8 -1988 1000 -2003 999 -6 0
-117 -53 -244 -117z"/>
<path d="M420 2507 l0 -1002 1015 -508 c558 -279 1017 -507 1020 -507 3 0 5
451 5 1003 l0 1002 -1015 508 c-558 279 -1017 507 -1020 507 -3 0 -5 -451 -5
-1003z"/>
<path d="M4448 3389 l-238 -119 0 -566 c0 -510 -2 -569 -17 -594 -9 -16 -27
-33 -40 -39 -53 -24 -77 -14 -228 95 -82 58 -153 108 -159 110 -6 2 -108 -136
-226 -307 -145 -210 -224 -316 -244 -326 -37 -19 -86 -10 -117 23 l-24 26 -3
524 -3 524 -244 -123 -245 -122 0 -1002 c0 -552 2 -1003 5 -1003 3 0 462 228
1020 507 l1015 508 0 1002 c0 552 -3 1003 -7 1002 -5 0 -115 -54 -245 -120z"/>
<path d="M3673 3002 l-313 -157 0 -389 0 -390 110 160 c170 246 202 287 233
297 43 14 64 4 185 -83 l112 -80 0 400 c0 220 -3 400 -7 399 -5 0 -149 -71
-320 -157z"/>
</g>
</svg>
