<?xml version="1.0" standalone="no"?>
<!DOCTYPE svg PUBLIC "-//W3C//DTD SVG 20010904//EN"
 "http://www.w3.org/TR/2001/REC-SVG-20010904/DTD/svg10.dtd">
<svg version="1.0" xmlns="http://www.w3.org/2000/svg"
 width="512.000000pt" height="512.000000pt" viewBox="0 0 512.000000 512.000000"
 preserveAspectRatio="xMidYMid meet">

<g transform="translate(0.000000,512.000000) scale(0.100000,-0.100000)"
fill="#000000" stroke="none">
<path d="M0 2560 l0 -2560 2560 0 2560 0 0 2560 0 2560 -2560 0 -2560 0 0
-2560z m2745 2385 c315 -16 682 -126 980 -293 590 -330 1024 -911 1169 -1562
76 -344 76 -715 0 -1060 -77 -345 -251 -708 -468 -975 -247 -304 -593 -562
-947 -709 -297 -122 -571 -176 -904 -176 -451 -1 -832 98 -1203 311 -707 407
-1154 1129 -1202 1941 -71 1227 797 2306 2015 2504 110 17 331 33 410 28 28
-2 95 -6 150 -9z"/>
</g>
</svg>
