<?xml version="1.0" standalone="no"?>
<!DOCTYPE svg PUBLIC "-//W3C//DTD SVG 20010904//EN"
 "http://www.w3.org/TR/2001/REC-SVG-20010904/DTD/svg10.dtd">
<svg version="1.0" xmlns="http://www.w3.org/2000/svg"
 width="512.000000pt" height="512.000000pt" viewBox="0 0 512.000000 512.000000"
 preserveAspectRatio="xMidYMid meet">

<g transform="translate(0.000000,512.000000) scale(0.100000,-0.100000)"
fill="#000000" stroke="none">
<path d="M0 2560 l0 -2560 2560 0 2560 0 0 2560 0 2560 -2560 0 -2560 0 0
-2560z m3985 2315 c100 -26 165 -63 241 -139 106 -107 154 -224 154 -377 0
-223 -109 -450 -274 -571 l-39 -28 429 0 c321 0 433 -3 442 -12 7 -7 12 -24
12 -39 0 -20 -124 -634 -155 -766 -4 -17 -1 -23 11 -23 39 0 100 -27 130 -57
51 -51 57 -90 38 -245 -20 -162 -38 -208 -100 -244 -40 -23 -53 -26 -123 -23
l-79 4 -21 -104 c-11 -57 -26 -110 -32 -117 -7 -9 -33 -14 -70 -14 l-58 0 -3
-828 -3 -827 -23 -50 c-12 -27 -30 -57 -39 -67 -15 -17 -9 -18 135 -18 139 0
154 -2 172 -20 24 -24 24 -29 4 -58 l-15 -22 -1133 0 c-867 0 -1135 3 -1144
12 -19 19 -14 55 10 72 19 14 73 16 380 16 197 0 358 1 358 3 0 1 -14 29 -30
61 l-30 59 0 862 c0 678 -3 865 -12 872 -7 6 -35 16 -61 23 -135 37 -264 171
-301 315 -21 80 -22 528 -2 625 40 187 170 355 341 439 117 58 155 63 457 68
250 5 277 7 281 22 3 14 -7 19 -61 29 -234 40 -425 275 -463 571 -35 276 117
517 376 592 76 22 221 24 300 4z m-1844 -445 c348 -36 677 -164 941 -367 105
-81 220 -187 240 -221 15 -26 16 -31 2 -50 -25 -36 -55 -27 -114 34 -121 123
-294 247 -460 330 -414 208 -889 241 -1331 94 -631 -209 -1087 -764 -1174
-1427 -116 -887 465 -1720 1340 -1921 149 -34 274 -45 449 -39 310 10 581 90
842 247 82 50 86 51 109 36 25 -16 31 -41 17 -62 -24 -38 -273 -167 -419 -218
-689 -239 -1434 -60 -1940 467 -185 193 -319 411 -407 667 -237 680 -53 1433
472 1931 387 368 915 551 1433 499z m-1 -665 c215 -57 396 -232 467 -450 32
-100 36 -253 9 -355 -44 -168 -157 -317 -315 -413 -114 -70 -124 -90 -131
-262 -6 -146 -16 -174 -83 -229 -33 -26 -48 -31 -105 -34 -82 -3 -130 20 -177
86 l-30 44 1 161 c0 149 2 168 26 235 53 149 138 251 275 330 109 64 155 137
155 247 1 102 -54 186 -152 236 -62 31 -157 31 -222 0 -83 -40 -147 -134 -148
-216 -1 -102 -63 -191 -149 -215 -81 -22 -173 13 -218 82 -26 39 -28 48 -27
147 0 93 4 116 31 188 86 228 280 390 517 433 65 12 205 4 276 -15z m-92
-1940 c80 -34 121 -102 122 -201 0 -80 -30 -139 -91 -177 -56 -34 -102 -42
-157 -28 -114 31 -180 164 -141 282 38 112 160 168 267 124z m130 -1511 c24
-17 29 -53 10 -72 -17 -17 -229 -17 -246 0 -18 18 -15 65 6 77 29 17 204 14
230 -5z"/>
<path d="M3751 4789 c-204 -34 -351 -216 -351 -434 1 -214 132 -445 297 -523
50 -23 71 -27 148 -27 78 0 97 4 147 28 119 58 233 212 273 367 20 76 22 216
5 280 -31 116 -117 223 -217 270 -54 25 -162 50 -213 49 -19 -1 -59 -5 -89
-10z"/>
<path d="M3925 3648 c-16 -48 -183 -883 -177 -888 4 -4 28 -15 55 -24 65 -24
130 -92 157 -164 44 -115 6 -248 -93 -322 l-47 -35 352 -3 c194 -1 358 0 364
2 6 2 19 45 29 95 l17 91 -32 37 c-53 60 -75 118 -74 198 1 115 64 209 171
257 24 10 43 20 43 21 0 1 36 170 78 375 l78 372 -458 0 c-358 0 -460 -3 -463
-12z"/>
<path d="M3265 3548 c-92 -17 -193 -74 -270 -152 -75 -76 -114 -144 -140 -242
-18 -68 -22 -554 -5 -614 17 -61 73 -143 124 -181 91 -69 122 -74 466 -74 339
0 337 0 398 69 76 87 47 231 -58 287 -31 17 -60 19 -283 19 -152 0 -256 4
-268 10 -18 10 -19 23 -19 188 0 187 3 202 45 202 40 0 45 -17 45 -162 l0
-138 169 0 c153 0 170 2 175 18 3 9 39 184 81 387 42 204 78 376 80 383 3 9
-49 12 -243 11 -136 -1 -269 -5 -297 -11z"/>
<path d="M4672 2799 c-105 -52 -135 -199 -59 -286 62 -70 171 -95 221 -50 22
19 27 37 41 142 20 155 19 162 -10 190 -20 21 -34 25 -87 25 -44 0 -76 -6
-106 -21z"/>
<path d="M3220 1348 c0 -558 4 -856 11 -881 12 -43 59 -101 100 -123 16 -8 55
-14 90 -14 107 0 178 60 199 169 6 32 10 247 10 523 0 509 -1 495 57 550 79
75 209 58 271 -35 l27 -41 5 -520 5 -521 23 -38 c36 -56 95 -87 171 -87 68 0
102 13 143 57 60 63 58 26 58 918 l0 815 -423 0 c-448 0 -447 0 -447 47 0 23
0 23 -150 23 l-150 0 0 -842z"/>
<path d="M3772 1514 c-16 -6 -34 -18 -38 -26 -5 -7 -11 -243 -14 -524 l-5
-511 -32 -61 -32 -62 154 0 154 0 -32 62 -32 61 -5 513 c-5 476 -6 513 -23
532 -24 26 -58 32 -95 16z"/>
<path d="M1838 3675 c-101 -25 -187 -74 -263 -150 -109 -109 -164 -232 -168
-375 -2 -69 -1 -72 31 -101 36 -33 77 -37 121 -14 33 17 47 49 56 126 13 119
95 233 205 287 77 38 191 43 273 12 76 -29 167 -112 204 -188 25 -51 28 -68
28 -152 -1 -76 -5 -105 -22 -142 -31 -67 -95 -133 -177 -180 -126 -74 -205
-177 -241 -314 -9 -37 -15 -104 -15 -181 0 -120 1 -123 28 -153 55 -62 149
-42 171 37 6 21 11 81 11 134 0 160 41 235 168 305 267 149 367 485 225 757
-120 229 -387 352 -635 292z"/>
<path d="M1934 1736 c-46 -20 -64 -52 -64 -114 0 -46 4 -58 29 -83 37 -36 94
-40 134 -8 31 24 50 83 41 128 -7 33 -48 81 -70 81 -7 0 -18 2 -26 5 -7 2 -27
-2 -44 -9z"/>
</g>
</svg>
