<?xml version="1.0" standalone="no"?>
<!DOCTYPE svg PUBLIC "-//W3C//DTD SVG 20010904//EN"
 "http://www.w3.org/TR/2001/REC-SVG-20010904/DTD/svg10.dtd">
<svg version="1.0" xmlns="http://www.w3.org/2000/svg"
 width="512.000000pt" height="512.000000pt" viewBox="0 0 512.000000 512.000000"
 preserveAspectRatio="xMidYMid meet">

<g transform="translate(0.000000,512.000000) scale(0.100000,-0.100000)"
fill="#000000" stroke="none">
<path d="M0 2560 l0 -2560 2560 0 2560 0 0 2560 0 2560 -2560 0 -2560 0 0
-2560z m2686 2233 l114 -78 0 -157 0 -158 795 0 795 0 241 -161 241 -161 -238
-159 -239 -159 -797 0 -798 0 0 -160 0 -160 320 0 320 0 0 -320 0 -320 -320 0
-320 0 0 -680 0 -680 644 2 644 3 43 30 c64 45 97 99 110 175 12 78 29 100 79
100 53 0 73 -26 71 -93 -4 -181 -153 -340 -344 -368 -34 -5 -329 -9 -654 -9
l-593 0 0 -520 0 -520 -240 0 -240 0 0 521 0 521 -124 -4 c-120 -3 -126 -4
-167 -33 -24 -17 -57 -50 -74 -74 l-30 -43 -7 -201 c-4 -149 -10 -214 -22
-247 -56 -153 -175 -249 -338 -272 -39 -5 -160 -8 -269 -6 -177 3 -199 5 -218
22 -29 26 -29 86 0 112 19 17 43 19 279 24 l258 5 43 30 c24 17 57 50 74 74
l30 43 7 201 c4 149 10 214 22 247 70 191 216 279 464 280 l72 0 0 680 0 680
-797 0 -798 0 -237 158 c-131 86 -238 159 -238 162 0 3 107 76 238 163 l237
157 798 0 797 0 0 160 0 160 -320 0 -320 0 0 320 0 320 320 0 320 0 0 159 0
159 118 76 c64 41 121 76 125 76 5 0 60 -35 123 -77z m1726 -1528 c123 -16
269 -129 333 -259 101 -204 42 -451 -175 -736 -72 -94 -231 -260 -250 -260
-20 0 -191 180 -262 275 -230 306 -274 566 -132 780 47 71 102 118 189 161 68
34 167 55 225 48 14 -2 46 -6 72 -9z m-3600 -1520 c123 -16 269 -129 333 -259
101 -204 42 -451 -175 -736 -72 -94 -231 -260 -250 -260 -20 0 -191 180 -262
275 -230 306 -274 566 -132 780 47 71 102 118 189 161 68 34 167 55 225 48 14
-2 46 -6 72 -9z"/>
<path d="M4233 2939 c-100 -64 -99 -217 1 -278 73 -45 181 -19 225 53 45 73
19 181 -53 225 -45 28 -129 28 -173 0z"/>
<path d="M633 1419 c-100 -64 -99 -217 1 -278 73 -45 181 -19 225 53 45 73 19
181 -53 225 -45 28 -129 28 -173 0z"/>
</g>
</svg>
