<?xml version="1.0" standalone="no"?>
<!DOCTYPE svg PUBLIC "-//W3C//DTD SVG 20010904//EN"
 "http://www.w3.org/TR/2001/REC-SVG-20010904/DTD/svg10.dtd">
<svg version="1.0" xmlns="http://www.w3.org/2000/svg"
 width="512.000000pt" height="512.000000pt" viewBox="0 0 512.000000 512.000000"
 preserveAspectRatio="xMidYMid meet">

<g transform="translate(0.000000,512.000000) scale(0.100000,-0.100000)"
fill="#000000" stroke="none">
<path d="M1 3568 c1 -864 5 -1509 10 -1453 33 416 285 803 656 1007 40 22 73
42 73 44 0 2 -23 32 -51 66 -65 81 -133 222 -154 321 -27 122 -18 286 22 400
49 141 122 247 238 346 217 185 546 226 812 102 79 -38 103 -62 103 -106 0
-43 -29 -75 -69 -75 -16 0 -57 13 -92 30 -92 42 -171 60 -269 60 -104 0 -182
-19 -276 -66 -93 -46 -162 -108 -223 -200 -64 -95 -92 -182 -98 -304 -9 -181
52 -335 182 -458 149 -142 337 -197 540 -158 77 15 104 10 129 -26 42 -59 3
-112 -99 -133 -150 -31 -322 -11 -468 54 l-69 31 -73 -31 c-265 -110 -495
-359 -594 -641 -53 -153 -61 -221 -61 -529 l0 -279 389 0 389 0 6 28 c3 15 8
47 11 72 4 25 18 88 31 140 115 446 401 806 817 1030 42 23 77 44 77 47 0 3
-20 27 -43 54 -80 92 -150 225 -194 374 -28 95 -26 363 5 468 95 328 345 576
668 662 129 35 339 35 468 0 323 -86 574 -335 668 -662 31 -106 33 -360 4
-468 -35 -133 -145 -336 -215 -399 -11 -11 -21 -23 -21 -27 0 -4 42 -30 93
-57 428 -232 744 -663 822 -1122 9 -52 18 -105 21 -117 l4 -23 390 0 390 0 0
279 c0 308 -8 376 -61 529 -98 280 -310 511 -584 638 l-77 36 -81 -35 c-155
-66 -312 -83 -462 -52 -102 21 -141 74 -99 133 25 36 52 41 129 26 209 -40
397 17 546 165 130 130 185 271 176 451 -6 123 -34 209 -98 305 -114 169 -293
265 -499 265 -98 0 -177 -18 -269 -60 -74 -35 -113 -38 -141 -10 -27 27 -27
83 1 111 64 64 255 120 409 120 332 0 613 -202 723 -518 25 -73 31 -108 35
-208 5 -137 -14 -238 -68 -354 -32 -67 -103 -173 -139 -205 l-21 -19 72 -40
c380 -205 634 -591 667 -1012 5 -56 9 589 10 1453 l1 1552 -2560 0 -2560 0 1
-1552z"/>
<path d="M2370 4290 c-204 -53 -393 -199 -489 -379 -108 -203 -121 -457 -34
-666 86 -205 256 -361 477 -438 86 -30 99 -31 236 -31 137 0 150 1 236 31 272
94 458 301 519 577 26 115 17 283 -19 391 -88 261 -289 449 -550 515 -106 27
-272 26 -376 0z"/>
<path d="M1918 2711 c-245 -123 -447 -303 -590 -527 -44 -69 -114 -215 -142
-298 -68 -197 -85 -357 -86 -793 l0 -283 1461 0 1462 0 -6 373 c-6 419 -13
485 -77 678 -94 285 -266 527 -500 703 -101 76 -232 153 -312 182 l-45 17 -90
-46 c-49 -25 -129 -58 -179 -73 -82 -26 -102 -28 -254 -28 -152 0 -172 2 -254
28 -50 15 -129 47 -176 72 -47 24 -93 44 -101 44 -7 0 -58 -22 -111 -49z"/>
<path d="M0 748 l0 -748 2560 0 2560 0 0 748 c-1 653 -3 743 -15 714 -8 -18
-26 -37 -40 -42 -16 -6 -196 -10 -456 -10 l-429 0 0 -344 c0 -204 -4 -355 -10
-371 -22 -58 57 -55 -1608 -55 -1093 0 -1538 3 -1561 11 -59 21 -61 32 -61
414 l0 345 -429 0 c-260 0 -440 4 -456 10 -14 5 -32 24 -40 42 -12 29 -14 -61
-15 -714z"/>
</g>
</svg>
